<svg xmlns="http://www.w3.org/2000/svg" viewBox="0 0 24 24">
  <path fill="#00FFB2" d="M14.31.18l.9.2.73.26.59.3.45.32.34.34.25.34.16.33.1.3.04.26.02.2-.01.13v12.8l.05.11.13.12.21.13.3.14.38.15.46.16.54.17.61.18.69.18.77.19.84.19.92.19.99.2 1.09.2h17.13l.29-.13.23-.2.15-.29.08-.4.05-.51.03-.64.02-.78.02-.93v-1.08l-.02-.77-.04-.65-.07-.52-.1-.39-.16-.25-.22-.13-.29-.02h-13.5l-.69.05-.59.14-.5.22-.41.27-.33.32-.27.35-.2.36-.15.37-.1.35-.07.32-.04.27-.02.21v3.06H3.23l-.22-.02-.28-.08-.32-.14-.35-.2-.37-.27-.38-.33-.38-.41-.36-.48-.32-.55-.28-.63-.21-.69-.14-.77-.05-.84v-1.27l.06-.81.16-.73.25-.64.35-.54.41-.43.48-.31.54-.18.59-.04h.89l8.86.02.96.04.89.08.85.13.82.19.79.26.77.34.75.43.73.53.71.64.69.77.67.91.66 1.06.64 1.23.63 1.42.62 1.61.59 1.83.57 2.06.55 2.31.52 2.58.49 2.87h-2.54l-.63-2.87-.6-2.58-.55-2.31-.5-2.06-.48-1.83-.46-1.61-.45-1.42-.44-1.23-.43-1.06-.43-.91-.43-.77-.44-.64-.45-.53-.47-.43-.49-.34-.52-.26-.55-.19-.58-.13-.62-.08-.65-.04h-8.86L4.59 5l-.1.19-.13.24-.14.29-.15.32-.15.35-.15.36-.14.37-.13.36-.11.34-.09.3-.07.26-.04.21-.01.15.03.48.08.41.13.33.19.25.24.16.29.08.33-.01h13.5l.41.01.35-.02.31-.05.26-.07.23-.1.2-.11.18-.13.17-.13.17-.13.18-.12.19-.1.22-.08.24-.06.28-.03h16.5l.5.19.36.29.25.44.16.63.1.87.05 1.14v2.06l-.02 1.14-.06.87-.12.63-.19.44-.27.29-.37.19h-17.36l-.92-.19-.84-.19-.77-.19-.69-.18-.61-.17-.53-.16-.46-.16-.38-.15-.3-.14-.22-.13-.13-.12-.05-.11V5.92l.02-.2.05-.26.09-.3.14-.33.22-.34.29-.34.35-.32.4-.3.44-.26.46-.21.47-.14.45-.07.42.01.37.1.3.19.2.3.1.41-.02.54v14.43l.03.56.1.41.2.3.3.19.38.1.42.01.45-.07.47-.14.46-.21.44-.26.4-.3.35-.32.29-.34.22-.34.14-.33.09-.3.05-.26.02-.2v-1.79l.74-.91 1.13-1.32 2.26-2.39 3.38-3.19L23.18 0l-8.87.18z"/>
</svg>